<svg xmlns="http://www.w3.org/2000/svg" width="570" height="94" viewBox="0 0 570 94">
  <metadata><?xpacket begin="﻿" id="W5M0MpCehiHzreSzNTczkc9d"?>
<x:xmpmeta xmlns:x="adobe:ns:meta/" x:xmptk="Adobe XMP Core 5.6-c138 79.159824, 2016/09/14-01:09:01        ">
   <rdf:RDF xmlns:rdf="http://www.w3.org/1999/02/22-rdf-syntax-ns#">
      <rdf:Description rdf:about=""/>
   </rdf:RDF>
</x:xmpmeta>
                                                                                                    
                                                                                                    
                                                                                                    
                                                                                                    
                                                                                                    
                                                                                                    
                                                                                                    
                                                                                                    
                                                                                                    
                                                                                                    
                                                                                                    
                                                                                                    
                                                                                                    
                                                                                                    
                                                                                                    
                                                                                                    
                                                                                                    
                                                                                                    
                                                                                                    
                                                                                                    
                           
<?xpacket end="w"?></metadata>
<defs>
    <style>
      .cls-1 {
        fill: #111;
        fill-rule: evenodd;
      }
    </style>
  </defs>
  <path id="brett_gardiner" data-name="brett gardiner" class="cls-1" d="M28.418,17.535a17.458,17.458,0,0,0-9.632,2.441,20.369,20.369,0,0,0-5.848,5.664V0.055H-0.979V71.929H12.742V65.24a21.187,21.187,0,0,0,5.2,5.469q4.024,2.637,10.65,2.637,10.551,0,16.441-8.154t5.89-20.557q0-11.963-5.972-19.531T28.418,17.535h0ZM24.9,61.871q-6.253,0-9.3-4.492a19.714,19.714,0,0,1-3.052-11.328,25.64,25.64,0,0,1,1.477-9.473q2.855-6.885,10.487-6.885,7.532,0,10.338,7.031A25.576,25.576,0,0,1,36.326,46.1q0,7.08-3,11.426A9.652,9.652,0,0,1,24.9,61.871h0ZM83.5,17.437a15.287,15.287,0,0,0-10.156,3.271q-2.393,1.953-5.615,7.275V18.707H54.447V71.929H68.461V46.49q0-6.4,1.611-9.473,2.88-5.468,11.279-5.469,0.634,0,1.66.049t2.344,0.2V17.535q-0.928-.048-1.2-0.073T83.5,17.437h0Zm28.18,11.328a12.2,12.2,0,0,1,8.253,2.869q3.328,2.869,3.707,8.41H99.666a14.458,14.458,0,0,1,3.707-8.238q2.949-3.041,8.307-3.041h0Zm-0.006-11.475q-11.7,0-19.032,7.38T85.31,45.88q0,14.76,8.121,21.308a29.013,29.013,0,0,0,18.747,6.548q12.871,0,20.023-7.764,4.6-4.882,5.159-9.619H123.154a10.808,10.808,0,0,1-10.592,6.1,14.131,14.131,0,0,1-7.672-2q-5.243-3.223-5.566-11.23h38.763a68.063,68.063,0,0,0-.458-10.563,26.158,26.158,0,0,0-4.241-11,21.644,21.644,0,0,0-9.2-7.873,30.3,30.3,0,0,0-12.517-2.494h0Zm33.4,11.816V61.871q0,4.98,2.344,7.373Q151.034,73,160.9,72.662l6.592-.244v-10.4q-0.684.049-1.392,0.073t-1.343.025q-4.248,0-5.078-.806t-0.83-4.077V29.107h8.643V19.2h-8.643V4.351H145.078V19.2h-7.422v9.912h7.422Zm33.3,0V61.871q0,4.98,2.344,7.373Q184.336,73,194.2,72.662l6.592-.244v-10.4q-0.685.049-1.392,0.073t-1.343.025q-4.248,0-5.078-.806t-0.83-4.077V29.107h8.643V19.2h-8.643V4.351h-13.77V19.2h-7.421v9.912h7.421Zm63.983,31.4a10.142,10.142,0,0,1-10.115-6.738,20.691,20.691,0,0,1-1.555-8.252,24.5,24.5,0,0,1,1.459-9.033q2.77-6.885,10.065-6.885a10.394,10.394,0,0,1,8.533,3.955q3.185,3.955,3.185,11.523,0,8.057-3.355,11.743a10.685,10.685,0,0,1-8.217,3.686h0Zm-3.5-43.066q-10.826,0-16.727,8.081t-5.9,19.946q0,12.3,6.128,19.507t16.381,7.2q6.64,0,10.791-3.174a16.968,16.968,0,0,0,4.3-5.127v3.418q0,7.617-1.66,10.84-2.54,5.028-10.058,5.029-5.323,0-7.569-1.9a6.27,6.27,0,0,1-1.9-3.516H217.507A14.774,14.774,0,0,0,224.636,89.7q6.446,4,16.651,4,16.893,0,22.851-8.984,3.467-5.225,3.467-15.527V18.707H254.031v7.666a16.717,16.717,0,0,0-8.193-7.715,18.294,18.294,0,0,0-6.973-1.221h0Zm65.317,33.789q-0.149,6.983-3.991,9.619a14.545,14.545,0,0,1-8.4,2.637A7.628,7.628,0,0,1,286.9,61.9q-2.009-1.586-2.008-5.151a6.355,6.355,0,0,1,3.287-5.908,20.839,20.839,0,0,1,6.4-1.9l3.167-.586a22.822,22.822,0,0,0,3.737-.952,15.363,15.363,0,0,0,2.7-1.343v5.176ZM290.9,40.142q-8.117,1.025-12.3,3.418-7.624,4.395-7.624,14.209,0,7.569,4.739,11.694a17.628,17.628,0,0,0,12.008,4.126A20.187,20.187,0,0,0,297.943,71a28.709,28.709,0,0,0,6.679-5.322q0.147,1.807.391,3.223a15.381,15.381,0,0,0,.879,3.027h15.137V69.879a4.973,4.973,0,0,1-2.051-1.611,7.722,7.722,0,0,1-.83-3.711q-0.1-3.613-.1-6.152V33.99q0-9.619-6.816-13.086a33.934,33.934,0,0,0-15.595-3.467q-13.486,0-19.027,7.031a20.36,20.36,0,0,0-3.923,11.475h13.428A10.064,10.064,0,0,1,288.1,31.06q2.079-2.441,7.078-2.441a14.547,14.547,0,0,1,6.756,1.245q2.3,1.245,2.3,4.517,0,2.686-3,3.955a22,22,0,0,1-5.558,1.221Zm62.212-22.705a15.287,15.287,0,0,0-10.156,3.271q-2.393,1.953-5.615,7.275V18.707H324.062V71.929h14.013V46.49q0-6.4,1.612-9.473,2.88-5.468,11.279-5.469,0.635,0,1.66.049t2.344,0.2V17.535q-0.929-.048-1.2-0.073c-0.18-.016-0.4-0.024-0.66-0.024h0Zm25.639,0q-10.5,0-16.772,7.813t-6.275,21.435q0,11.817,6.372,19.36a19.778,19.778,0,0,0,15.7,7.544,19.059,19.059,0,0,0,9.473-2.148,19.627,19.627,0,0,0,6.787-6.885v7.373h13.526V0.055H393.45V25.445a16.905,16.905,0,0,0-6.1-5.884,17.167,17.167,0,0,0-8.594-2.124h0Zm3.027,44.434q-5.908,0-8.813-4.419t-2.9-11.792a21.381,21.381,0,0,1,2.856-11.45q2.856-4.614,8.96-4.614a10.616,10.616,0,0,1,7.031,2.539q4.932,4.2,4.932,13.965,0,6.983-3.076,11.377a10.275,10.275,0,0,1-8.985,4.395h0ZM426.515-.483H412.4V12.359h14.112V-0.483ZM412.4,71.929h14.112V18.707H412.4V71.929Zm49.062-54.492a17.521,17.521,0,0,0-10.843,3.223,23.61,23.61,0,0,0-5.057,5.908V18.8H432.089V71.929h13.916V43.121a20.764,20.764,0,0,1,1.357-8.105q2.618-6.006,9.646-6.006,5.718,0,7.755,4.1a14.872,14.872,0,0,1,1.115,6.445V71.929h14.258V36.09q0-10.009-5.227-14.331t-13.444-4.321h0Zm47.78,11.328a12.2,12.2,0,0,1,8.254,2.869q3.327,2.869,3.707,8.41H497.231a14.464,14.464,0,0,1,3.707-8.238q2.949-3.041,8.307-3.041h0Zm0-11.475q-11.7,0-19.032,7.38T482.876,45.88q0,14.76,8.121,21.308a29.013,29.013,0,0,0,18.747,6.548q12.873,0,20.024-7.764,4.6-4.882,5.159-9.619H520.719a10.808,10.808,0,0,1-10.591,6.1,14.134,14.134,0,0,1-7.673-2q-5.241-3.223-5.566-11.23h38.764a68.038,68.038,0,0,0-.459-10.563,26.157,26.157,0,0,0-4.24-11,21.656,21.656,0,0,0-9.2-7.873,30.3,30.3,0,0,0-12.517-2.494h0ZM567.6,17.437a15.287,15.287,0,0,0-10.156,3.271q-2.393,1.953-5.615,7.275V18.707H538.544V71.929h14.013V46.49q0-6.4,1.612-9.473,2.88-5.468,11.279-5.469,0.635,0,1.66.049t2.344,0.2V17.535q-0.928-.048-1.2-0.073c-0.18-.016-0.4-0.024-0.66-0.024h0Z"/>
</svg>
